<svg width="0" height="0" class="hidden">
  <symbol fill="none" xmlns="http://www.w3.org/2000/svg" viewBox="0 0 48 48" id="diversity">
    <g id="diversity">
      <path id="Vector" d="M2 40V32C2 30.8667 2.392 29.9167 3.176 29.15C3.96 28.3833 4.90133 28 6 28H12.55C13.2167 28 13.85 28.1667 14.45 28.5C15.05 28.8333 15.5333 29.2833 15.9 29.85C16.8667 31.15 18.0587 32.1667 19.476 32.9C20.8933 33.6333 22.4013 34 24 34C25.6333 34 27.1587 33.6333 28.576 32.9C29.9933 32.1667 31.168 31.15 32.1 29.85C32.5333 29.2833 33.042 28.8333 33.626 28.5C34.21 28.1667 34.818 28 35.45 28H42C43.1333 28 44.0833 28.3833 44.85 29.15C45.6167 29.9167 46 30.8667 46 32V40H32V35.45C30.8333 36.2833 29.5747 36.9167 28.224 37.35C26.8733 37.7833 25.4653 38 24 38C22.5667 38 21.1667 37.7753 19.8 37.326C18.4333 36.8767 17.1667 36.2347 16 35.4V40H2ZM24 32C22.7333 32 21.5333 31.7087 20.4 31.126C19.2667 30.5433 18.3167 29.7347 17.55 28.7C16.9833 27.8667 16.2753 27.2087 15.426 26.726C14.5767 26.2433 13.6513 26.0013 12.65 26C13.3833 24.7667 14.9333 23.7913 17.3 23.074C19.6667 22.3567 21.9 21.9987 24 22C26.1 22.0013 28.3333 22.36 30.7 23.076C33.0667 23.792 34.6167 24.7667 35.35 26C34.3833 26 33.4667 26.242 32.6 26.726C31.7333 27.21 31.0167 27.868 30.45 28.7C29.7167 29.7667 28.7833 30.5833 27.65 31.15C26.5167 31.7167 25.3 32 24 32ZM8 26C6.33333 26 4.91667 25.4167 3.75 24.25C2.58333 23.0833 2 21.6667 2 20C2 18.3 2.58333 16.8753 3.75 15.726C4.91667 14.5767 6.33333 14.0013 8 14C9.7 14 11.1253 14.5753 12.276 15.726C13.4267 16.8767 14.0013 18.3013 14 20C14 21.6667 13.4253 23.0833 12.276 24.25C11.1267 25.4167 9.70133 26 8 26ZM40 26C38.3333 26 36.9167 25.4167 35.75 24.25C34.5833 23.0833 34 21.6667 34 20C34 18.3 34.5833 16.8753 35.75 15.726C36.9167 14.5767 38.3333 14.0013 40 14C41.7 14 43.1253 14.5753 44.276 15.726C45.4267 16.8767 46.0013 18.3013 46 20C46 21.6667 45.4253 23.0833 44.276 24.25C43.1267 25.4167 41.7013 26 40 26ZM24 20C22.3333 20 20.9167 19.4167 19.75 18.25C18.5833 17.0833 18 15.6667 18 14C18 12.3 18.5833 10.8753 19.75 9.726C20.9167 8.57667 22.3333 8.00133 24 8C25.7 8 27.1253 8.57533 28.276 9.726C29.4267 10.8767 30.0013 12.3013 30 14C30 15.6667 29.4253 17.0833 28.276 18.25C27.1267 19.4167 25.7013 20 24 20Z" fill="currentColor"></path>
    </g>
  </symbol>
  <symbol fill="none" xmlns="http://www.w3.org/2000/svg" viewBox="0 0 48 48" id="globe">
    <g id="globe">
      <path id="Vector" d="M24 44C21.2333 44 18.6333 43.4747 16.2 42.424C13.7667 41.3733 11.65 39.9487 9.85 38.15C8.05 36.3513 6.62534 34.2347 5.576 31.8C4.52667 29.3653 4.00134 26.7653 4 24C3.99867 21.2347 4.524 18.6347 5.576 16.2C6.628 13.7653 8.05267 11.6487 9.85 9.85C11.6473 8.05133 13.764 6.62667 16.2 5.576C18.636 4.52533 21.236 4 24 4C26.764 4 29.364 4.52533 31.8 5.576C34.236 6.62667 36.3527 8.05133 38.15 9.85C39.9473 11.6487 41.3727 13.7653 42.426 16.2C43.4793 18.6347 44.004 21.2347 44 24C43.996 26.7653 43.4707 29.3653 42.424 31.8C41.3773 34.2347 39.9527 36.3513 38.15 38.15C36.3473 39.9487 34.2307 41.374 31.8 42.426C29.3693 43.478 26.7693 44.0027 24 44ZM24 40C28.4667 40 32.25 38.45 35.35 35.35C38.45 32.25 40 28.4667 40 24C40 23.7667 39.992 23.5247 39.976 23.274C39.96 23.0233 39.9513 22.8153 39.95 22.65C39.7833 23.6167 39.3333 24.4167 38.6 25.05C37.8667 25.6833 37 26 36 26H32C30.9 26 29.9587 25.6087 29.176 24.826C28.3933 24.0433 28.0013 23.1013 28 22V20H20V16C20 14.9 20.392 13.9587 21.176 13.176C21.96 12.3933 22.9013 12.0013 24 12H26C26 11.2333 26.2087 10.5587 26.626 9.976C27.0433 9.39333 27.5513 8.918 28.15 8.55C27.4833 8.38333 26.8087 8.25 26.126 8.15C25.4433 8.05 24.7347 8 24 8C19.5333 8 15.75 9.55 12.65 12.65C9.55 15.75 8 19.5333 8 24H18C20.2 24 22.0833 24.7833 23.65 26.35C25.2167 27.9167 26 29.8 26 32V34H20V39.5C20.6667 39.6667 21.3253 39.792 21.976 39.876C22.6267 39.96 23.3013 40.0013 24 40Z" fill="currentColor"></path>
    </g>
  </symbol>
  <symbol fill="none" xmlns="http://www.w3.org/2000/svg" viewBox="0 0 48 48" id="lightbulb">
    <g id="lightbulb">
      <path id="Vector" d="M24 44C22.9 44 21.9587 43.6087 21.176 42.826C20.3933 42.0433 20.0013 41.1013 20 40H28C28 41.1 27.6087 42.042 26.826 42.826C26.0433 43.61 25.1013 44.0013 24 44ZM16 38V34H32V38H16ZM16.5 32C14.2 30.6333 12.3747 28.8 11.024 26.5C9.67334 24.2 8.99867 21.7 9 19C9 14.8333 10.4587 11.292 13.376 8.376C16.2933 5.46 19.8347 4.00133 24 4C28.1653 3.99867 31.7073 5.45733 34.626 8.376C37.5447 11.2947 39.0027 14.836 39 19C39 21.7 38.3253 24.2 36.976 26.5C35.6267 28.8 33.8013 30.6333 31.5 32H16.5Z" fill="currentColor"></path>
    </g>
  </symbol>
</svg>