<svg width="0" height="0" class="hidden">
  <symbol fill="none" xmlns="http://www.w3.org/2000/svg" viewBox="0 0 48 48" id="bluesky">
    <g id="bluesky">
      <path id="Vector" d="M10.4813 5.83124C15.9563 9.92811 21.8438 18.2531 24 22.725C26.1562 18.2625 32.0438 9.93749 37.5188 5.83124C41.4656 2.86874 47.8594 0.581235 47.8594 7.87499C47.8594 9.32811 47.025 20.1094 46.5375 21.8625C44.8312 27.9375 38.625 29.4937 33.1031 28.5469C42.75 30.1875 45.2062 35.625 39.9 41.0625C29.8313 51.3937 25.4344 38.475 24.3094 35.1656C24.15 34.7062 24.0656 34.4344 24 34.4344C23.9344 34.4344 23.85 34.7156 23.6906 35.1656C22.5656 38.475 18.1594 51.3937 8.1 41.0625C2.80313 35.625 5.25 30.1875 14.8969 28.5469C9.375 29.4937 3.16875 27.9375 1.47187 21.8531C0.975 20.1 0.140625 9.31874 0.140625 7.86561C0.140625 0.571861 6.53438 2.85936 10.4813 5.82186V5.83124Z" fill="currentColor"></path>
    </g>
  </symbol>
  <symbol fill="none" xmlns="http://www.w3.org/2000/svg" viewBox="0 0 48 48" id="facebook">
    <g id="facebook">
      <path id="Vector" d="M40 6H8C7.46957 6 6.96086 6.21071 6.58579 6.58579C6.21071 6.96086 6 7.46957 6 8V40C6 40.5304 6.21071 41.0391 6.58579 41.4142C6.96086 41.7893 7.46957 42 8 42H25.23V28.08H20.554V22.63H25.23V18.63C25.23 13.98 28.07 11.446 32.23 11.446C33.63 11.442 35.0267 11.5133 36.42 11.66V16.5H33.55C31.294 16.5 30.854 17.576 30.854 19.15V22.62H36.248L35.548 28.07H30.852V42H40C40.5304 42 41.0391 41.7893 41.4142 41.4142C41.7893 41.0391 42 40.5304 42 40V8C42 7.46957 41.7893 6.96086 41.4142 6.58579C41.0391 6.21071 40.5304 6 40 6Z" fill="currentColor"></path>
    </g>
  </symbol>
  <symbol fill="none" xmlns="http://www.w3.org/2000/svg" viewBox="0 0 48 48" id="github">
    <g id="github">
      <path id="Vector" fill-rule="evenodd" clip-rule="evenodd" d="M24.052 4C13.034 4 4.104 12.93 4.104 23.948C4.104 32.76 9.818 40.238 17.746 42.878C18.744 43.058 19.104 42.444 19.104 41.916C19.104 41.442 19.088 40.186 19.082 38.524C13.532 39.728 12.36 35.848 12.36 35.848C11.456 33.544 10.146 32.93 10.146 32.93C8.336 31.692 10.284 31.72 10.284 31.72C12.288 31.86 13.338 33.776 13.338 33.776C15.118 36.824 18.01 35.944 19.142 35.434C19.324 34.144 19.844 33.264 20.412 32.766C15.984 32.264 11.328 30.552 11.328 22.906C11.328 20.732 12.106 18.948 13.376 17.556C13.174 17.05 12.484 15.02 13.574 12.276C13.574 12.276 15.248 11.738 19.058 14.318C20.6853 13.8758 22.3637 13.6498 24.05 13.646C25.7363 13.6498 27.4147 13.8758 29.042 14.318C32.854 11.736 34.526 12.276 34.526 12.276C35.616 15.02 34.932 17.05 34.724 17.556C36.004 18.948 36.772 20.73 36.772 22.906C36.772 30.572 32.112 32.256 27.668 32.75C28.378 33.366 29.018 34.582 29.018 36.442C29.018 39.11 28.994 41.262 28.994 41.916C28.994 42.45 29.35 43.07 30.368 42.874C38.292 40.23 44 32.758 44 23.948C44 12.93 35.07 4 24.052 4Z" fill="currentColor"></path>
    </g>
  </symbol>
  <symbol fill="none" xmlns="http://www.w3.org/2000/svg" viewBox="0 0 48 48" id="instagram">
    <g id="instagram">
      <path id="Vector" d="M41.8939 16.61C41.8749 15.0951 41.5913 13.5952 41.0559 12.178C40.5937 10.9817 39.8864 9.89521 38.9796 8.98834C38.0727 8.08147 36.9862 7.37422 35.7899 6.912C34.3906 6.38649 32.9123 6.10245 31.4179 6.072C29.4939 5.986 28.8839 5.962 23.9999 5.962C19.1159 5.962 18.4899 5.962 16.5799 6.072C15.0862 6.10267 13.6085 6.38671 12.2099 6.912C11.0136 7.37422 9.92711 8.08147 9.02024 8.98834C8.11336 9.89521 7.40612 10.9817 6.9439 12.178C6.41929 13.5768 6.13593 15.0544 6.1059 16.548C6.0199 18.474 5.9939 19.084 5.9939 23.968C5.9939 28.852 5.9939 29.476 6.1059 31.388C6.1359 32.884 6.4179 34.36 6.9439 35.762C7.40657 36.9581 8.11423 38.0443 9.02145 38.9509C9.92867 39.8574 11.0154 40.5642 12.2119 41.026C13.6069 41.5718 15.0847 41.8761 16.5819 41.926C18.5079 42.012 19.1179 42.038 24.0019 42.038C28.8859 42.038 29.5119 42.038 31.4219 41.926C32.9162 41.8962 34.3945 41.6128 35.7939 41.088C36.989 40.6236 38.0743 39.9156 38.9809 39.009C39.8875 38.1024 40.5955 37.0171 41.0599 35.822C41.5859 34.422 41.8679 32.946 41.8979 31.448C41.9839 29.524 42.0099 28.914 42.0099 24.028C42.0059 19.144 42.0059 18.524 41.8939 16.61ZM23.9879 33.204C18.8799 33.204 14.7419 29.066 14.7419 23.958C14.7419 18.85 18.8799 14.712 23.9879 14.712C26.4401 14.712 28.7918 15.6861 30.5258 17.4201C32.2598 19.1541 33.2339 21.5058 33.2339 23.958C33.2339 26.4102 32.2598 28.7619 30.5258 30.4959C28.7918 32.2299 26.4401 33.204 23.9879 33.204ZM33.6019 16.526C33.3187 16.5263 33.0382 16.4707 32.7765 16.3624C32.5148 16.2542 32.277 16.0954 32.0768 15.8951C31.8765 15.6949 31.7177 15.4571 31.6095 15.1954C31.5012 14.9337 31.4456 14.6532 31.4459 14.37C31.4459 14.087 31.5016 13.8068 31.6099 13.5453C31.7182 13.2839 31.877 13.0463 32.0771 12.8462C32.2772 12.6461 32.5148 12.4873 32.7762 12.379C33.0377 12.2707 33.3179 12.215 33.6009 12.215C33.8839 12.215 34.1641 12.2707 34.4256 12.379C34.687 12.4873 34.9246 12.6461 35.1247 12.8462C35.3248 13.0463 35.4836 13.2839 35.5919 13.5453C35.7002 13.8068 35.7559 14.087 35.7559 14.37C35.7559 15.562 34.7919 16.526 33.6019 16.526Z" fill="currentColor"></path>
      <path id="Vector_2" d="M23.9879 29.964C27.305 29.964 29.9939 27.275 29.9939 23.958C29.9939 20.641 27.305 17.952 23.9879 17.952C20.6709 17.952 17.9819 20.641 17.9819 23.958C17.9819 27.275 20.6709 29.964 23.9879 29.964Z" fill="currentColor"></path>
    </g>
  </symbol>
  <symbol fill="none" xmlns="http://www.w3.org/2000/svg" viewBox="0 0 48 48" id="mastodon">
    <g id="mastodon">
      <path id="Vector" d="M32.0001 34.48C37.0001 33.88 41.3801 30.8 42.0001 27.98C42.559 24.3942 42.8266 20.769 42.8001 17.14C42.6601 8.46 36.9601 6 36.9601 6C32.8035 4.52743 28.4072 3.84899 24.0001 4C19.593 3.84899 15.1967 4.52743 11.0401 6C11.0401 6 5.36011 8.46 5.36011 17.14V24.02C5.56011 32.5 6.92011 40.86 14.7601 42.94C17.7644 43.7814 20.8834 44.1392 24.0001 44C26.4443 43.9358 28.8512 43.385 31.0801 42.38L30.9401 39.1C28.6869 39.7553 26.346 40.0589 24.0001 40C20.4001 39.88 16.5801 39.62 16.0001 35.2C15.967 34.7807 15.967 34.3593 16.0001 33.94C18.6294 34.5368 21.3067 34.8983 24.0001 35.02C26.6773 35.0672 29.3536 34.8866 32.0001 34.48ZM18.9201 14.88C17.1201 14.88 16.2201 15.96 16.2201 18.12V28.32H12.0001V17.8C11.901 15.95 12.4846 14.1281 13.6401 12.68C14.1887 12.0368 14.8735 11.5236 15.6448 11.1777C16.4162 10.8318 17.2549 10.6618 18.1001 10.68C19.0462 10.6292 19.9889 10.8301 20.8321 11.2623C21.6753 11.6944 22.3888 12.3423 22.9001 13.14L23.9401 14.88L24.9801 13.14C25.4914 12.3423 26.2049 11.6944 27.0481 11.2623C27.8913 10.8301 28.834 10.6292 29.7801 10.68C30.6253 10.6618 31.464 10.8318 32.2354 11.1777C33.0068 11.5236 33.6915 12.0368 34.2401 12.68C35.4387 14.1109 36.0656 15.9346 36.0001 17.8V28.32H31.7801V18.12C31.7801 15.96 30.8801 14.88 29.0801 14.88C27.0801 14.88 26.0601 16.16 26.0601 18.72V24.3H22.0001V18.72C22.0001 16.16 20.9201 14.88 18.9201 14.88Z" fill="currentColor"></path>
    </g>
  </symbol>
  <symbol fill="none" xmlns="http://www.w3.org/2000/svg" viewBox="0 0 48 48" id="twitch">
    <g id="twitch">
      <path id="Vector" d="M8.53 6L6 12.472V38.918H15.004V42L20.066 43.7L24.85 38.918H32.166L42.012 29.07V6H8.53ZM38.634 27.382L33.008 33.01H24.004L19.222 37.792V33.01H11.626V9.376H38.634V27.382ZM33.01 15.848V25.694H29.634V15.848H33.01ZM24.006 15.848V25.694H20.63V15.848H24.006Z" fill="currentColor"></path>
    </g>
  </symbol>
  <symbol fill="none" xmlns="http://www.w3.org/2000/svg" viewBox="0 0 48 48" id="twitter">
    <g id="twitter">
      <path id="Vector" d="M36.4875 4.5H43.1062L28.65 21.0187L45.6562 43.5H32.3437L21.9093 29.8688L9.98433 43.5H3.3562L18.8156 25.8281L2.51245 4.5H16.1625L25.5843 16.9594L36.4875 4.5ZM34.1625 39.5437H37.8281L14.1656 8.25H10.2281L34.1625 39.5437Z" fill="currentColor"></path>
    </g>
  </symbol>
</svg>