<svg width="0" height="0" class="hidden">
  <symbol fill="none" xmlns="http://www.w3.org/2000/svg" viewBox="0 0 48 48" id="rounded-outline">
    <g id="rounded-outline">
      <g id="Vector">
        <mask id="path-1-inside-1_6_256" fill="white">
          <path d="M22.4467 0.099636C22.5089 0.0676102 22.6058 0.0284674 22.6646 0.0142337C22.7235 0 22.8377 -0.00355843 22.9242 0.00355843C23.0107 0.0142337 23.1595 0.0604933 23.2529 0.103194C23.3498 0.149454 23.5193 0.263324 23.63 0.359401C23.7442 0.455479 23.9276 0.647634 24.0418 0.782855C24.1525 0.921633 24.374 1.23122 24.5331 1.47675C24.6888 1.72228 24.938 2.14573 25.0833 2.41973C25.2252 2.69373 25.4674 3.19191 25.6196 3.52285C25.7684 3.85734 26.0106 4.41601 26.1525 4.7683C26.2944 5.12058 26.5124 5.68281 26.6369 6.01375C26.7615 6.34824 26.9864 6.97808 27.1386 7.41933C27.2909 7.86057 27.5642 8.69324 27.7476 9.26971C28.0037 10.0739 28.1109 10.3586 28.2044 10.4903C28.2701 10.5828 28.3947 10.7109 28.4812 10.7749C28.5677 10.8354 28.713 10.9173 28.7995 10.9564C28.9068 10.9991 29.0487 11.024 29.2217 11.024C29.405 11.024 29.5365 11.0027 29.6715 10.9493C29.7753 10.9101 29.9379 10.807 30.0313 10.7215C30.1248 10.6361 30.2874 10.4404 30.3912 10.2839C30.4985 10.1273 30.7545 9.7501 30.9656 9.44763C31.1732 9.14517 31.533 8.63987 31.7614 8.32673C31.9898 8.01358 32.3635 7.51896 32.5919 7.22717C32.8237 6.93182 33.1974 6.47634 33.4292 6.21302C33.6576 5.94614 33.9932 5.58674 34.1731 5.40881C34.3531 5.23089 34.6091 4.99959 34.7406 4.88572C34.8756 4.77541 35.1005 4.61173 35.2423 4.52276C35.3842 4.43025 35.6022 4.32349 35.7268 4.28435C35.8513 4.24877 36.0174 4.21674 36.1005 4.21674C36.18 4.21674 36.3046 4.24165 36.3773 4.27367C36.4465 4.30214 36.5503 4.36975 36.6022 4.42313C36.6575 4.47651 36.7475 4.61173 36.8029 4.7256C36.8582 4.83591 36.9344 5.06009 36.9724 5.22378C37.0105 5.3839 37.0589 5.76466 37.0831 6.06712C37.1143 6.49058 37.1143 6.79304 37.0831 7.36595C37.0589 7.77517 37.0036 8.45127 36.9551 8.86049C36.9067 9.26971 36.8271 9.86397 36.7787 10.1771C36.7337 10.4903 36.6299 11.0987 36.5537 11.5293C36.4776 11.9599 36.3288 12.7285 36.225 13.2374C36.1212 13.7462 35.9171 14.6821 35.7752 15.319C35.5503 16.3047 35.5157 16.504 35.533 16.6712C35.5468 16.778 35.5953 16.9524 35.6403 17.0556C35.6887 17.1552 35.8029 17.326 35.8963 17.4292C36.007 17.5502 36.1385 17.6498 36.5053 17.8242L37.924 17.8669C38.7025 17.8918 39.5226 17.9203 39.7406 17.9345C39.9585 17.9452 40.4326 17.9807 40.7959 18.0092C41.1592 18.0377 41.7025 18.0911 42.007 18.1302C42.3115 18.1693 42.7405 18.2334 42.9585 18.2725C43.1765 18.3117 43.4983 18.3829 43.6678 18.4291C43.8374 18.4754 44.1038 18.5643 44.2561 18.6248C44.4083 18.6889 44.6055 18.7956 44.699 18.8632C44.7889 18.9273 44.8927 19.0376 44.9308 19.1017C44.9723 19.1728 45 19.276 45 19.3757C45 19.4682 44.9654 19.5998 44.9204 19.6924C44.8789 19.7778 44.7439 19.945 44.6194 20.066C44.4948 20.187 44.263 20.372 44.1004 20.4823C43.9377 20.5926 43.6367 20.7777 43.4256 20.8951C43.2146 21.0125 42.8443 21.2047 42.5952 21.3257C42.3461 21.4431 41.9274 21.6353 41.6609 21.7527C41.3945 21.8666 40.8201 22.105 40.3807 22.2758C39.9412 22.4466 39.2423 22.7099 38.8236 22.8629C38.4049 23.0124 37.6575 23.2757 37.1627 23.4429C36.6679 23.6102 35.9897 23.8344 35.6576 23.9447C35.3448 24.0452 34.719 24.2436 34.2252 24.4001L34.1351 24.4286C33.6299 24.5852 33.1559 24.7524 33.0797 24.7987C33.0036 24.845 32.879 24.9517 32.8064 25.0371C32.7303 25.1225 32.6299 25.2826 32.5815 25.3894C32.5054 25.5566 32.4915 25.6349 32.4915 25.9232C32.4915 26.2185 32.5019 26.2861 32.5849 26.4569C32.6368 26.5637 32.7372 26.7167 32.8098 26.7914C32.8825 26.8661 33.1593 27.0974 33.4258 27.3038C33.6922 27.5102 34.1835 27.8945 34.5157 28.1614C34.8479 28.4247 35.5019 28.9549 35.969 29.3428C36.4361 29.7271 37.1524 30.3392 37.5606 30.6986C37.9689 31.0615 38.5779 31.6202 38.9101 31.944C39.2423 32.2678 39.6783 32.7198 39.879 32.9475C40.0796 33.1788 40.3288 33.4848 40.4326 33.6272C40.5364 33.7695 40.6817 33.9901 40.7544 34.1147C40.827 34.2357 40.917 34.4527 40.9585 34.5879C41.0104 34.7659 41.0243 34.8762 41.007 34.9794C40.9931 35.0577 40.9481 35.168 40.9066 35.2249C40.8651 35.2854 40.7544 35.3672 40.6575 35.4099C40.5641 35.4562 40.3461 35.5096 40.1731 35.5309C40.0001 35.5523 39.7371 35.5594 39.5848 35.5487C39.4326 35.538 39.1696 35.5096 38.9966 35.4918C38.8236 35.4704 38.443 35.4064 38.1489 35.3494C37.8548 35.289 37.27 35.1537 36.8513 35.0434C36.4326 34.9367 35.8029 34.7587 35.45 34.6556C35.097 34.5488 34.4673 34.346 34.0486 34.2036C33.3462 33.9688 33.2631 33.951 32.9932 33.951C32.7476 33.951 32.668 33.9652 32.5088 34.0399C32.405 34.0933 32.2424 34.2036 32.149 34.289C32.0451 34.3887 31.9413 34.531 31.8756 34.6769C31.796 34.8477 31.7614 34.9687 31.7545 35.1395C31.7441 35.3032 31.796 35.6768 31.9171 36.4027C32.014 36.9721 32.1455 37.7941 32.2112 38.2353C32.2804 38.6766 32.3877 39.4452 32.4534 39.9434C32.5192 40.4416 32.6057 41.1461 32.6438 41.5091C32.6853 41.872 32.7406 42.4485 32.7683 42.7901C32.796 43.1317 32.8341 43.7972 32.8548 44.2669C32.8756 44.8184 32.8756 45.3415 32.8548 45.7436C32.8375 46.0852 32.796 46.5122 32.7683 46.6866C32.7372 46.861 32.6714 47.135 32.623 47.2915C32.5711 47.4481 32.4811 47.6403 32.4223 47.715C32.3669 47.7933 32.2631 47.8894 32.1974 47.9285C32.1144 47.9783 32.0175 48.0032 31.886 47.9997C31.7476 47.9997 31.6369 47.9712 31.4881 47.8965C31.3739 47.8395 31.1697 47.7008 31.0382 47.594C30.9068 47.4837 30.6784 47.2666 30.5365 47.1101C30.3947 46.9535 30.1594 46.6724 30.014 46.4873C29.8687 46.3023 29.623 45.9678 29.4639 45.7436C29.3082 45.5194 29.0175 45.0853 28.8237 44.7828C28.63 44.4804 28.3151 43.968 28.1248 43.6441C27.9345 43.3203 27.6127 42.7688 27.4155 42.4165C27.2148 42.0642 26.8099 41.3205 26.5158 40.7618C26.2182 40.2031 25.8065 39.4096 25.5989 39.0004C25.3878 38.5912 25.0279 37.8688 24.7996 37.3991C24.5193 36.8262 24.3359 36.4881 24.2321 36.3707C24.1387 36.264 24.0003 36.1572 23.8584 36.086C23.6785 35.9971 23.5851 35.9722 23.3567 35.9651C23.1318 35.9544 23.0418 35.9686 22.8723 36.0327C22.7581 36.0789 22.6024 36.1643 22.5297 36.2248C22.4536 36.2818 22.2979 36.4668 22.1871 36.634C22.073 36.8013 21.7927 37.2105 21.5643 37.5414C21.3325 37.8724 20.9415 38.4275 20.6889 38.7691C20.4398 39.1107 20.0834 39.584 19.8965 39.8188C19.7131 40.0537 19.3775 40.4629 19.1526 40.7262C18.9277 40.9896 18.5298 41.4237 18.2668 41.687C18.0004 41.9539 17.6613 42.267 17.509 42.3845C17.3568 42.5019 17.1388 42.6549 17.0246 42.7261C16.9104 42.7972 16.7201 42.8898 16.6024 42.9289C16.4813 42.9716 16.298 43.0036 16.1941 43.0036C16.0765 43.0036 15.9519 42.9787 15.8758 42.936C15.8031 42.9004 15.6924 42.8079 15.6267 42.7332C15.5609 42.6549 15.4779 42.5304 15.4468 42.4521C15.4121 42.3738 15.3533 42.1887 15.3153 42.0429C15.2807 41.897 15.2288 41.5696 15.208 41.3134C15.1803 41.0251 15.1734 40.623 15.1872 40.2458C15.1976 39.9149 15.2253 39.4559 15.2461 39.2317C15.2634 39.0075 15.3118 38.5734 15.3499 38.2709C15.3879 37.9684 15.471 37.3742 15.5402 36.9543C15.6059 36.5344 15.7305 35.8369 15.8135 35.4064C15.8966 34.9758 16.0281 34.3282 16.1076 33.9652C16.2218 33.4492 16.2495 33.2571 16.2357 33.0756C16.2287 32.9297 16.1907 32.7731 16.1319 32.6486C16.0834 32.5418 15.9727 32.3782 15.8862 32.2856C15.7893 32.1824 15.6336 32.0686 15.4952 32.001C15.3568 31.9369 15.1803 31.8835 15.0696 31.8729C14.9658 31.8622 14.8032 31.8729 14.7063 31.8978C14.6059 31.9227 14.1942 32.1362 13.7201 32.4137C13.2927 32.6659 12.6875 33.0094 12.3453 33.2037L12.3015 33.2286C11.9693 33.4137 11.3084 33.7659 10.8309 34.0115C10.3569 34.2534 9.69942 34.5737 9.37763 34.7232C9.05583 34.8691 8.56449 35.079 8.28767 35.1858C8.01086 35.2961 7.5991 35.4384 7.37073 35.506C7.14236 35.5736 6.80672 35.6555 6.6268 35.6875C6.44687 35.7195 6.19082 35.7444 6.05587 35.7444C5.92092 35.7444 5.72715 35.7195 5.62335 35.6875C5.49878 35.6484 5.38806 35.5843 5.30847 35.4989C5.23235 35.4206 5.16315 35.3067 5.13893 35.2107C5.11125 35.1075 5.10432 34.9545 5.11817 34.7837C5.13201 34.6271 5.19083 34.3602 5.26349 34.1431C5.32924 33.9367 5.47802 33.5773 5.59221 33.3425C5.70639 33.1076 5.93822 32.6771 6.11123 32.3817C6.28424 32.0899 6.59565 31.5917 6.80673 31.2786C7.0178 30.9655 7.40879 30.4068 7.68215 30.0331C7.95204 29.6595 8.40186 29.0617 8.68559 28.6987C8.96587 28.3358 9.39493 27.802 9.63368 27.5067C9.87243 27.2149 10.2669 26.738 10.5091 26.4498C10.7513 26.158 10.9935 25.8378 11.0454 25.7381C11.1319 25.5673 11.1423 25.5139 11.1423 25.1901C11.1423 24.8485 11.1354 24.8201 11.0212 24.5852C10.9036 24.3503 10.862 24.3076 9.91395 23.4892C9.37071 23.023 8.59217 22.3434 8.18387 21.9769C7.77557 21.6103 7.16658 21.0552 6.83441 20.7456C6.50223 20.4361 5.81712 19.7564 5.31193 19.2369C4.80329 18.7173 4.22198 18.0839 4.01783 17.8277C3.81368 17.5715 3.54379 17.2121 3.42615 17.0271C3.30504 16.842 3.16317 16.593 3.11127 16.4755C3.05245 16.3403 3.01439 16.1766 3.00401 16.0307C2.99363 15.8421 3.00055 15.7781 3.05937 15.6856C3.10089 15.6215 3.19778 15.5361 3.27736 15.5005C3.36386 15.4578 3.54725 15.4187 3.70296 15.408C3.87597 15.3938 4.12164 15.4044 4.36039 15.4365C4.568 15.4685 4.92786 15.5325 5.15623 15.5859C5.3846 15.6393 5.85172 15.7674 6.19428 15.8706C6.53683 15.9738 7.13544 16.1766 7.52644 16.3154C7.91744 16.4577 8.57833 16.7104 8.99701 16.8741C9.41569 17.0413 10.1562 17.3438 10.6406 17.5502C11.125 17.7566 11.952 18.116 12.4745 18.3508C13.3153 18.7316 13.4537 18.7814 13.6682 18.7956C13.8343 18.8099 13.9727 18.7992 14.1007 18.76C14.2046 18.728 14.3776 18.6426 14.4814 18.5643C14.5852 18.4896 14.727 18.3401 14.7962 18.2334C14.8654 18.1266 14.9519 17.9452 14.9831 17.8277C15.0281 17.6712 15.0385 17.5502 15.0212 17.3829C15.0038 17.173 14.9243 16.9915 14.1042 15.2835C13.6094 14.2551 13.0246 13.0239 12.8032 12.5435C12.5783 12.0631 12.2219 11.2802 12.0073 10.7998C11.7928 10.3194 11.4814 9.60776 11.3153 9.21633C11.1492 8.82491 10.907 8.23065 10.779 7.89971C10.651 7.56878 10.4607 7.03857 10.3534 6.72543C10.2496 6.41229 10.1216 5.97105 10.0697 5.74686C10.0039 5.46931 9.97277 5.23445 9.96931 5.01739C9.96931 4.78609 9.98315 4.66866 10.0212 4.59037C10.0524 4.53344 10.1216 4.46227 10.1769 4.43736C10.2392 4.40534 10.3326 4.39466 10.433 4.4089C10.5195 4.41957 10.7063 4.49074 10.8482 4.56547C10.9901 4.63663 11.2565 4.80388 11.4364 4.93554C11.6164 5.06365 11.9381 5.31629 12.1458 5.49777C12.3534 5.6757 12.7374 6.01731 12.9935 6.25572C13.2495 6.49413 13.9693 7.20938 14.5886 7.84634C15.208 8.4833 16.0177 9.3302 16.3879 9.73231C16.7582 10.1344 17.4398 10.8852 17.9069 11.4048C18.374 11.9243 18.81 12.4011 18.8758 12.4687C18.9415 12.5328 19.0903 12.6324 19.2045 12.6894C19.3187 12.7427 19.4986 12.7997 19.6024 12.8103C19.7235 12.8246 19.8619 12.8103 19.9899 12.7748C20.1007 12.7463 20.2529 12.6894 20.329 12.6502C20.4052 12.6111 20.5366 12.5079 20.6232 12.4189C20.7097 12.33 20.8204 12.1663 20.8723 12.056C20.9242 11.9421 20.9726 11.7748 20.983 11.6788C21.0003 11.5329 20.9969 11.5115 20.9449 11.5115C20.9103 11.5115 20.8757 11.4866 20.8654 11.4581C20.855 11.4297 20.8792 11.3443 20.9207 11.2731C20.9865 11.145 20.9899 11.1059 20.9622 10.5579C20.9449 10.1558 20.9207 9.9636 20.8896 9.93514C20.8654 9.91023 20.8446 9.86753 20.8446 9.83906C20.8481 9.81059 20.8654 9.76789 20.8861 9.7501C20.9103 9.72519 20.9242 9.19854 20.9346 8.09543C20.9415 7.20582 20.9622 6.17388 20.983 5.80024C21.0072 5.42661 21.0453 4.8537 21.0764 4.51921C21.1041 4.18471 21.1595 3.69009 21.1975 3.41609C21.2356 3.14209 21.3048 2.72576 21.3498 2.4909C21.3948 2.25604 21.4744 1.92155 21.5228 1.74363C21.5747 1.56571 21.6612 1.30239 21.7131 1.15649C21.7685 1.01059 21.8723 0.789972 21.9449 0.665426C22.0176 0.54444 22.1352 0.380752 22.2044 0.302467C22.2771 0.224181 22.3878 0.131662 22.4467 0.099636Z"></path>
        </mask>
        <path d="M22.4467 0.099636C22.5089 0.0676102 22.6058 0.0284674 22.6646 0.0142337C22.7235 0 22.8377 -0.00355843 22.9242 0.00355843C23.0107 0.0142337 23.1595 0.0604933 23.2529 0.103194C23.3498 0.149454 23.5193 0.263324 23.63 0.359401C23.7442 0.455479 23.9276 0.647634 24.0418 0.782855C24.1525 0.921633 24.374 1.23122 24.5331 1.47675C24.6888 1.72228 24.938 2.14573 25.0833 2.41973C25.2252 2.69373 25.4674 3.19191 25.6196 3.52285C25.7684 3.85734 26.0106 4.41601 26.1525 4.7683C26.2944 5.12058 26.5124 5.68281 26.6369 6.01375C26.7615 6.34824 26.9864 6.97808 27.1386 7.41933C27.2909 7.86057 27.5642 8.69324 27.7476 9.26971C28.0037 10.0739 28.1109 10.3586 28.2044 10.4903C28.2701 10.5828 28.3947 10.7109 28.4812 10.7749C28.5677 10.8354 28.713 10.9173 28.7995 10.9564C28.9068 10.9991 29.0487 11.024 29.2217 11.024C29.405 11.024 29.5365 11.0027 29.6715 10.9493C29.7753 10.9101 29.9379 10.807 30.0313 10.7215C30.1248 10.6361 30.2874 10.4404 30.3912 10.2839C30.4985 10.1273 30.7545 9.7501 30.9656 9.44763C31.1732 9.14517 31.533 8.63987 31.7614 8.32673C31.9898 8.01358 32.3635 7.51896 32.5919 7.22717C32.8237 6.93182 33.1974 6.47634 33.4292 6.21302C33.6576 5.94614 33.9932 5.58674 34.1731 5.40881C34.3531 5.23089 34.6091 4.99959 34.7406 4.88572C34.8756 4.77541 35.1005 4.61173 35.2423 4.52276C35.3842 4.43025 35.6022 4.32349 35.7268 4.28435C35.8513 4.24877 36.0174 4.21674 36.1005 4.21674C36.18 4.21674 36.3046 4.24165 36.3773 4.27367C36.4465 4.30214 36.5503 4.36975 36.6022 4.42313C36.6575 4.47651 36.7475 4.61173 36.8029 4.7256C36.8582 4.83591 36.9344 5.06009 36.9724 5.22378C37.0105 5.3839 37.0589 5.76466 37.0831 6.06712C37.1143 6.49058 37.1143 6.79304 37.0831 7.36595C37.0589 7.77517 37.0036 8.45127 36.9551 8.86049C36.9067 9.26971 36.8271 9.86397 36.7787 10.1771C36.7337 10.4903 36.6299 11.0987 36.5537 11.5293C36.4776 11.9599 36.3288 12.7285 36.225 13.2374C36.1212 13.7462 35.9171 14.6821 35.7752 15.319C35.5503 16.3047 35.5157 16.504 35.533 16.6712C35.5468 16.778 35.5953 16.9524 35.6403 17.0556C35.6887 17.1552 35.8029 17.326 35.8963 17.4292C36.007 17.5502 36.1385 17.6498 36.5053 17.8242L37.924 17.8669C38.7025 17.8918 39.5226 17.9203 39.7406 17.9345C39.9585 17.9452 40.4326 17.9807 40.7959 18.0092C41.1592 18.0377 41.7025 18.0911 42.007 18.1302C42.3115 18.1693 42.7405 18.2334 42.9585 18.2725C43.1765 18.3117 43.4983 18.3829 43.6678 18.4291C43.8374 18.4754 44.1038 18.5643 44.2561 18.6248C44.4083 18.6889 44.6055 18.7956 44.699 18.8632C44.7889 18.9273 44.8927 19.0376 44.9308 19.1017C44.9723 19.1728 45 19.276 45 19.3757C45 19.4682 44.9654 19.5998 44.9204 19.6924C44.8789 19.7778 44.7439 19.945 44.6194 20.066C44.4948 20.187 44.263 20.372 44.1004 20.4823C43.9377 20.5926 43.6367 20.7777 43.4256 20.8951C43.2146 21.0125 42.8443 21.2047 42.5952 21.3257C42.3461 21.4431 41.9274 21.6353 41.6609 21.7527C41.3945 21.8666 40.8201 22.105 40.3807 22.2758C39.9412 22.4466 39.2423 22.7099 38.8236 22.8629C38.4049 23.0124 37.6575 23.2757 37.1627 23.4429C36.6679 23.6102 35.9897 23.8344 35.6576 23.9447C35.3448 24.0452 34.719 24.2436 34.2252 24.4001L34.1351 24.4286C33.6299 24.5852 33.1559 24.7524 33.0797 24.7987C33.0036 24.845 32.879 24.9517 32.8064 25.0371C32.7303 25.1225 32.6299 25.2826 32.5815 25.3894C32.5054 25.5566 32.4915 25.6349 32.4915 25.9232C32.4915 26.2185 32.5019 26.2861 32.5849 26.4569C32.6368 26.5637 32.7372 26.7167 32.8098 26.7914C32.8825 26.8661 33.1593 27.0974 33.4258 27.3038C33.6922 27.5102 34.1835 27.8945 34.5157 28.1614C34.8479 28.4247 35.5019 28.9549 35.969 29.3428C36.4361 29.7271 37.1524 30.3392 37.5606 30.6986C37.9689 31.0615 38.5779 31.6202 38.9101 31.944C39.2423 32.2678 39.6783 32.7198 39.879 32.9475C40.0796 33.1788 40.3288 33.4848 40.4326 33.6272C40.5364 33.7695 40.6817 33.9901 40.7544 34.1147C40.827 34.2357 40.917 34.4527 40.9585 34.5879C41.0104 34.7659 41.0243 34.8762 41.007 34.9794C40.9931 35.0577 40.9481 35.168 40.9066 35.2249C40.8651 35.2854 40.7544 35.3672 40.6575 35.4099C40.5641 35.4562 40.3461 35.5096 40.1731 35.5309C40.0001 35.5523 39.7371 35.5594 39.5848 35.5487C39.4326 35.538 39.1696 35.5096 38.9966 35.4918C38.8236 35.4704 38.443 35.4064 38.1489 35.3494C37.8548 35.289 37.27 35.1537 36.8513 35.0434C36.4326 34.9367 35.8029 34.7587 35.45 34.6556C35.097 34.5488 34.4673 34.346 34.0486 34.2036C33.3462 33.9688 33.2631 33.951 32.9932 33.951C32.7476 33.951 32.668 33.9652 32.5088 34.0399C32.405 34.0933 32.2424 34.2036 32.149 34.289C32.0451 34.3887 31.9413 34.531 31.8756 34.6769C31.796 34.8477 31.7614 34.9687 31.7545 35.1395C31.7441 35.3032 31.796 35.6768 31.9171 36.4027C32.014 36.9721 32.1455 37.7941 32.2112 38.2353C32.2804 38.6766 32.3877 39.4452 32.4534 39.9434C32.5192 40.4416 32.6057 41.1461 32.6438 41.5091C32.6853 41.872 32.7406 42.4485 32.7683 42.7901C32.796 43.1317 32.8341 43.7972 32.8548 44.2669C32.8756 44.8184 32.8756 45.3415 32.8548 45.7436C32.8375 46.0852 32.796 46.5122 32.7683 46.6866C32.7372 46.861 32.6714 47.135 32.623 47.2915C32.5711 47.4481 32.4811 47.6403 32.4223 47.715C32.3669 47.7933 32.2631 47.8894 32.1974 47.9285C32.1144 47.9783 32.0175 48.0032 31.886 47.9997C31.7476 47.9997 31.6369 47.9712 31.4881 47.8965C31.3739 47.8395 31.1697 47.7008 31.0382 47.594C30.9068 47.4837 30.6784 47.2666 30.5365 47.1101C30.3947 46.9535 30.1594 46.6724 30.014 46.4873C29.8687 46.3023 29.623 45.9678 29.4639 45.7436C29.3082 45.5194 29.0175 45.0853 28.8237 44.7828C28.63 44.4804 28.3151 43.968 28.1248 43.6441C27.9345 43.3203 27.6127 42.7688 27.4155 42.4165C27.2148 42.0642 26.8099 41.3205 26.5158 40.7618C26.2182 40.2031 25.8065 39.4096 25.5989 39.0004C25.3878 38.5912 25.0279 37.8688 24.7996 37.3991C24.5193 36.8262 24.3359 36.4881 24.2321 36.3707C24.1387 36.264 24.0003 36.1572 23.8584 36.086C23.6785 35.9971 23.5851 35.9722 23.3567 35.9651C23.1318 35.9544 23.0418 35.9686 22.8723 36.0327C22.7581 36.0789 22.6024 36.1643 22.5297 36.2248C22.4536 36.2818 22.2979 36.4668 22.1871 36.634C22.073 36.8013 21.7927 37.2105 21.5643 37.5414C21.3325 37.8724 20.9415 38.4275 20.6889 38.7691C20.4398 39.1107 20.0834 39.584 19.8965 39.8188C19.7131 40.0537 19.3775 40.4629 19.1526 40.7262C18.9277 40.9896 18.5298 41.4237 18.2668 41.687C18.0004 41.9539 17.6613 42.267 17.509 42.3845C17.3568 42.5019 17.1388 42.6549 17.0246 42.7261C16.9104 42.7972 16.7201 42.8898 16.6024 42.9289C16.4813 42.9716 16.298 43.0036 16.1941 43.0036C16.0765 43.0036 15.9519 42.9787 15.8758 42.936C15.8031 42.9004 15.6924 42.8079 15.6267 42.7332C15.5609 42.6549 15.4779 42.5304 15.4468 42.4521C15.4121 42.3738 15.3533 42.1887 15.3153 42.0429C15.2807 41.897 15.2288 41.5696 15.208 41.3134C15.1803 41.0251 15.1734 40.623 15.1872 40.2458C15.1976 39.9149 15.2253 39.4559 15.2461 39.2317C15.2634 39.0075 15.3118 38.5734 15.3499 38.2709C15.3879 37.9684 15.471 37.3742 15.5402 36.9543C15.6059 36.5344 15.7305 35.8369 15.8135 35.4064C15.8966 34.9758 16.0281 34.3282 16.1076 33.9652C16.2218 33.4492 16.2495 33.2571 16.2357 33.0756C16.2287 32.9297 16.1907 32.7731 16.1319 32.6486C16.0834 32.5418 15.9727 32.3782 15.8862 32.2856C15.7893 32.1824 15.6336 32.0686 15.4952 32.001C15.3568 31.9369 15.1803 31.8835 15.0696 31.8729C14.9658 31.8622 14.8032 31.8729 14.7063 31.8978C14.6059 31.9227 14.1942 32.1362 13.7201 32.4137C13.2927 32.6659 12.6875 33.0094 12.3453 33.2037L12.3015 33.2286C11.9693 33.4137 11.3084 33.7659 10.8309 34.0115C10.3569 34.2534 9.69942 34.5737 9.37763 34.7232C9.05583 34.8691 8.56449 35.079 8.28767 35.1858C8.01086 35.2961 7.5991 35.4384 7.37073 35.506C7.14236 35.5736 6.80672 35.6555 6.6268 35.6875C6.44687 35.7195 6.19082 35.7444 6.05587 35.7444C5.92092 35.7444 5.72715 35.7195 5.62335 35.6875C5.49878 35.6484 5.38806 35.5843 5.30847 35.4989C5.23235 35.4206 5.16315 35.3067 5.13893 35.2107C5.11125 35.1075 5.10432 34.9545 5.11817 34.7837C5.13201 34.6271 5.19083 34.3602 5.26349 34.1431C5.32924 33.9367 5.47802 33.5773 5.59221 33.3425C5.70639 33.1076 5.93822 32.6771 6.11123 32.3817C6.28424 32.0899 6.59565 31.5917 6.80673 31.2786C7.0178 30.9655 7.40879 30.4068 7.68215 30.0331C7.95204 29.6595 8.40186 29.0617 8.68559 28.6987C8.96587 28.3358 9.39493 27.802 9.63368 27.5067C9.87243 27.2149 10.2669 26.738 10.5091 26.4498C10.7513 26.158 10.9935 25.8378 11.0454 25.7381C11.1319 25.5673 11.1423 25.5139 11.1423 25.1901C11.1423 24.8485 11.1354 24.8201 11.0212 24.5852C10.9036 24.3503 10.862 24.3076 9.91395 23.4892C9.37071 23.023 8.59217 22.3434 8.18387 21.9769C7.77557 21.6103 7.16658 21.0552 6.83441 20.7456C6.50223 20.4361 5.81712 19.7564 5.31193 19.2369C4.80329 18.7173 4.22198 18.0839 4.01783 17.8277C3.81368 17.5715 3.54379 17.2121 3.42615 17.0271C3.30504 16.842 3.16317 16.593 3.11127 16.4755C3.05245 16.3403 3.01439 16.1766 3.00401 16.0307C2.99363 15.8421 3.00055 15.7781 3.05937 15.6856C3.10089 15.6215 3.19778 15.5361 3.27736 15.5005C3.36386 15.4578 3.54725 15.4187 3.70296 15.408C3.87597 15.3938 4.12164 15.4044 4.36039 15.4365C4.568 15.4685 4.92786 15.5325 5.15623 15.5859C5.3846 15.6393 5.85172 15.7674 6.19428 15.8706C6.53683 15.9738 7.13544 16.1766 7.52644 16.3154C7.91744 16.4577 8.57833 16.7104 8.99701 16.8741C9.41569 17.0413 10.1562 17.3438 10.6406 17.5502C11.125 17.7566 11.952 18.116 12.4745 18.3508C13.3153 18.7316 13.4537 18.7814 13.6682 18.7956C13.8343 18.8099 13.9727 18.7992 14.1007 18.76C14.2046 18.728 14.3776 18.6426 14.4814 18.5643C14.5852 18.4896 14.727 18.3401 14.7962 18.2334C14.8654 18.1266 14.9519 17.9452 14.9831 17.8277C15.0281 17.6712 15.0385 17.5502 15.0212 17.3829C15.0038 17.173 14.9243 16.9915 14.1042 15.2835C13.6094 14.2551 13.0246 13.0239 12.8032 12.5435C12.5783 12.0631 12.2219 11.2802 12.0073 10.7998C11.7928 10.3194 11.4814 9.60776 11.3153 9.21633C11.1492 8.82491 10.907 8.23065 10.779 7.89971C10.651 7.56878 10.4607 7.03857 10.3534 6.72543C10.2496 6.41229 10.1216 5.97105 10.0697 5.74686C10.0039 5.46931 9.97277 5.23445 9.96931 5.01739C9.96931 4.78609 9.98315 4.66866 10.0212 4.59037C10.0524 4.53344 10.1216 4.46227 10.1769 4.43736C10.2392 4.40534 10.3326 4.39466 10.433 4.4089C10.5195 4.41957 10.7063 4.49074 10.8482 4.56547C10.9901 4.63663 11.2565 4.80388 11.4364 4.93554C11.6164 5.06365 11.9381 5.31629 12.1458 5.49777C12.3534 5.6757 12.7374 6.01731 12.9935 6.25572C13.2495 6.49413 13.9693 7.20938 14.5886 7.84634C15.208 8.4833 16.0177 9.3302 16.3879 9.73231C16.7582 10.1344 17.4398 10.8852 17.9069 11.4048C18.374 11.9243 18.81 12.4011 18.8758 12.4687C18.9415 12.5328 19.0903 12.6324 19.2045 12.6894C19.3187 12.7427 19.4986 12.7997 19.6024 12.8103C19.7235 12.8246 19.8619 12.8103 19.9899 12.7748C20.1007 12.7463 20.2529 12.6894 20.329 12.6502C20.4052 12.6111 20.5366 12.5079 20.6232 12.4189C20.7097 12.33 20.8204 12.1663 20.8723 12.056C20.9242 11.9421 20.9726 11.7748 20.983 11.6788C21.0003 11.5329 20.9969 11.5115 20.9449 11.5115C20.9103 11.5115 20.8757 11.4866 20.8654 11.4581C20.855 11.4297 20.8792 11.3443 20.9207 11.2731C20.9865 11.145 20.9899 11.1059 20.9622 10.5579C20.9449 10.1558 20.9207 9.9636 20.8896 9.93514C20.8654 9.91023 20.8446 9.86753 20.8446 9.83906C20.8481 9.81059 20.8654 9.76789 20.8861 9.7501C20.9103 9.72519 20.9242 9.19854 20.9346 8.09543C20.9415 7.20582 20.9622 6.17388 20.983 5.80024C21.0072 5.42661 21.0453 4.8537 21.0764 4.51921C21.1041 4.18471 21.1595 3.69009 21.1975 3.41609C21.2356 3.14209 21.3048 2.72576 21.3498 2.4909C21.3948 2.25604 21.4744 1.92155 21.5228 1.74363C21.5747 1.56571 21.6612 1.30239 21.7131 1.15649C21.7685 1.01059 21.8723 0.789972 21.9449 0.665426C22.0176 0.54444 22.1352 0.380752 22.2044 0.302467C22.2771 0.224181 22.3878 0.131662 22.4467 0.099636Z" stroke="currentColor" stroke-width="1" mask="url(#path-1-inside-1_6_256)"></path>
      </g>
    </g>
  </symbol>
  <symbol fill="none" xmlns="http://www.w3.org/2000/svg" viewBox="0 0 48 48" id="rounded-solid">
    <g id="rounded-solid">
      <path id="Vector" d="M22.4467 0.099636C22.5089 0.0676102 22.6058 0.0284674 22.6646 0.0142337C22.7235 0 22.8377 -0.00355843 22.9242 0.00355843C23.0107 0.0142337 23.1595 0.0604933 23.2529 0.103194C23.3498 0.149454 23.5193 0.263324 23.63 0.359401C23.7442 0.455479 23.9276 0.647634 24.0418 0.782855C24.1525 0.921633 24.374 1.23122 24.5331 1.47675C24.6888 1.72228 24.938 2.14573 25.0833 2.41973C25.2252 2.69373 25.4674 3.19191 25.6196 3.52285C25.7684 3.85734 26.0106 4.41601 26.1525 4.7683C26.2944 5.12058 26.5124 5.68281 26.6369 6.01375C26.7615 6.34824 26.9864 6.97808 27.1386 7.41933C27.2909 7.86057 27.5642 8.69324 27.7476 9.26971C28.0037 10.0739 28.1109 10.3586 28.2044 10.4903C28.2701 10.5828 28.3947 10.7109 28.4812 10.7749C28.5677 10.8354 28.713 10.9173 28.7995 10.9564C28.9068 10.9991 29.0487 11.024 29.2217 11.024C29.405 11.024 29.5365 11.0027 29.6715 10.9493C29.7753 10.9101 29.9379 10.807 30.0313 10.7215C30.1248 10.6361 30.2874 10.4404 30.3912 10.2839C30.4985 10.1273 30.7545 9.7501 30.9656 9.44763C31.1732 9.14517 31.533 8.63987 31.7614 8.32673C31.9898 8.01358 32.3635 7.51896 32.5919 7.22717C32.8237 6.93182 33.1974 6.47634 33.4292 6.21302C33.6576 5.94614 33.9932 5.58673 34.1731 5.40881C34.3531 5.23089 34.6091 4.99959 34.7406 4.88572C34.8756 4.77541 35.1005 4.61173 35.2423 4.52276C35.3842 4.43025 35.6022 4.32349 35.7268 4.28435C35.8513 4.24877 36.0174 4.21674 36.1005 4.21674C36.18 4.21674 36.3046 4.24165 36.3773 4.27367C36.4465 4.30214 36.5503 4.36975 36.6022 4.42313C36.6575 4.47651 36.7475 4.61173 36.8029 4.7256C36.8582 4.83591 36.9344 5.06009 36.9724 5.22378C37.0105 5.3839 37.0589 5.76466 37.0831 6.06712C37.1143 6.49058 37.1143 6.79304 37.0831 7.36595C37.0589 7.77517 37.0036 8.45127 36.9551 8.86049C36.9067 9.26971 36.8271 9.86397 36.7787 10.1771C36.7337 10.4903 36.6299 11.0987 36.5537 11.5293C36.4776 11.9599 36.3288 12.7285 36.225 13.2374C36.1212 13.7462 35.9171 14.6821 35.7752 15.319C35.5503 16.3047 35.5157 16.504 35.533 16.6712C35.5468 16.778 35.5953 16.9524 35.6403 17.0556C35.6887 17.1552 35.8029 17.326 35.8963 17.4292C36.007 17.5502 36.1385 17.6498 36.5053 17.8242L37.924 17.8669C38.7025 17.8918 39.5226 17.9203 39.7406 17.9345C39.9585 17.9452 40.4326 17.9807 40.7959 18.0092C41.1592 18.0377 41.7025 18.0911 42.007 18.1302C42.3115 18.1693 42.7405 18.2334 42.9585 18.2725C43.1765 18.3117 43.4983 18.3829 43.6678 18.4291C43.8374 18.4754 44.1038 18.5643 44.2561 18.6248C44.4083 18.6889 44.6055 18.7956 44.699 18.8632C44.7889 18.9273 44.8927 19.0376 44.9308 19.1017C44.9723 19.1728 45 19.276 45 19.3757C45 19.4682 44.9654 19.5998 44.9204 19.6924C44.8789 19.7778 44.7439 19.945 44.6194 20.066C44.4948 20.187 44.263 20.372 44.1004 20.4823C43.9377 20.5926 43.6367 20.7777 43.4256 20.8951C43.2146 21.0125 42.8443 21.2047 42.5952 21.3257C42.3461 21.4431 41.9274 21.6353 41.6609 21.7527C41.3945 21.8666 40.8201 22.105 40.3807 22.2758C39.9412 22.4466 39.2423 22.7099 38.8236 22.8629C38.4049 23.0124 37.6575 23.2757 37.1627 23.4429C36.6679 23.6102 35.9897 23.8344 35.6576 23.9447C35.3446 24.0453 34.7182 24.2438 34.2243 24.4004L34.1351 24.4286C33.6299 24.5852 33.1559 24.7524 33.0797 24.7987C33.0036 24.845 32.879 24.9517 32.8064 25.0371C32.7303 25.1225 32.6299 25.2826 32.5815 25.3894C32.5054 25.5566 32.4915 25.6349 32.4915 25.9232C32.4915 26.2185 32.5019 26.2861 32.5849 26.4569C32.6368 26.5637 32.7372 26.7167 32.8098 26.7914C32.8825 26.8661 33.1593 27.0974 33.4258 27.3038C33.6922 27.5102 34.1835 27.8945 34.5157 28.1614C34.8479 28.4247 35.5019 28.9549 35.969 29.3428C36.4361 29.7271 37.1524 30.3392 37.5606 30.6986C37.9689 31.0615 38.5779 31.6202 38.9101 31.944C39.2423 32.2678 39.6783 32.7198 39.879 32.9475C40.0797 33.1788 40.3288 33.4848 40.4326 33.6272C40.5364 33.7695 40.6817 33.9901 40.7544 34.1147C40.827 34.2357 40.917 34.4527 40.9585 34.5879C41.0104 34.7659 41.0243 34.8762 41.007 34.9794C40.9931 35.0577 40.9481 35.168 40.9066 35.2249C40.8651 35.2854 40.7544 35.3672 40.6575 35.4099C40.5641 35.4562 40.3461 35.5096 40.1731 35.5309C40.0001 35.5523 39.7371 35.5594 39.5848 35.5487C39.4326 35.538 39.1696 35.5096 38.9966 35.4918C38.8236 35.4704 38.443 35.4064 38.1489 35.3494C37.8548 35.289 37.27 35.1537 36.8513 35.0434C36.4326 34.9367 35.8029 34.7587 35.45 34.6556C35.097 34.5488 34.4673 34.346 34.0486 34.2036C33.3462 33.9688 33.2631 33.951 32.9932 33.951C32.7476 33.951 32.668 33.9652 32.5088 34.0399C32.405 34.0933 32.2424 34.2036 32.149 34.289C32.0451 34.3887 31.9413 34.531 31.8756 34.6769C31.796 34.8477 31.7614 34.9687 31.7545 35.1395C31.7441 35.3032 31.796 35.6768 31.9171 36.4027C32.014 36.9721 32.1455 37.7941 32.2112 38.2353C32.2804 38.6766 32.3877 39.4452 32.4534 39.9434C32.5192 40.4416 32.6057 41.1461 32.6438 41.5091C32.6853 41.872 32.7406 42.4485 32.7683 42.7901C32.796 43.1317 32.8341 43.7972 32.8548 44.2669C32.8756 44.8184 32.8756 45.3415 32.8548 45.7436C32.8375 46.0852 32.796 46.5122 32.7683 46.6866C32.7372 46.861 32.6714 47.135 32.623 47.2915C32.5711 47.4481 32.4811 47.6403 32.4223 47.715C32.3669 47.7933 32.2631 47.8894 32.1974 47.9285C32.1144 47.9783 32.0175 48.0032 31.886 47.9997C31.7476 47.9997 31.6369 47.9712 31.4881 47.8965C31.3739 47.8395 31.1697 47.7008 31.0382 47.594C30.9068 47.4837 30.6784 47.2666 30.5365 47.1101C30.3947 46.9535 30.1594 46.6724 30.014 46.4873C29.8687 46.3023 29.623 45.9678 29.4639 45.7436C29.3082 45.5194 29.0175 45.0853 28.8237 44.7828C28.63 44.4804 28.3151 43.968 28.1248 43.6441C27.9345 43.3203 27.6127 42.7688 27.4155 42.4165C27.2148 42.0642 26.8099 41.3205 26.5158 40.7618C26.2182 40.2031 25.8065 39.4096 25.5989 39.0004C25.3878 38.5912 25.0279 37.8688 24.7996 37.3991C24.5193 36.8262 24.3359 36.4881 24.2321 36.3707C24.1387 36.264 24.0003 36.1572 23.8584 36.086C23.6785 35.9971 23.5851 35.9722 23.3567 35.9651C23.1318 35.9544 23.0418 35.9686 22.8723 36.0327C22.7581 36.0789 22.6024 36.1643 22.5297 36.2248C22.4536 36.2818 22.2979 36.4668 22.1871 36.634C22.073 36.8013 21.7927 37.2105 21.5643 37.5414C21.3325 37.8724 20.9415 38.4275 20.6889 38.7691C20.4398 39.1107 20.0834 39.584 19.8965 39.8188C19.7131 40.0537 19.3775 40.4629 19.1526 40.7262C18.9277 40.9896 18.5298 41.4237 18.2668 41.687C18.0004 41.9539 17.6613 42.267 17.509 42.3845C17.3568 42.5019 17.1388 42.6549 17.0246 42.7261C16.9104 42.7972 16.7201 42.8898 16.6024 42.9289C16.4813 42.9716 16.298 43.0036 16.1941 43.0036C16.0765 43.0036 15.9519 42.9787 15.8758 42.936C15.8031 42.9004 15.6924 42.8079 15.6267 42.7332C15.5609 42.6549 15.4779 42.5304 15.4468 42.4521C15.4121 42.3738 15.3533 42.1887 15.3153 42.0429C15.2807 41.897 15.2288 41.5696 15.208 41.3134C15.1803 41.0251 15.1734 40.623 15.1872 40.2458C15.1976 39.9149 15.2253 39.4559 15.2461 39.2317C15.2634 39.0075 15.3118 38.5734 15.3499 38.2709C15.3879 37.9684 15.471 37.3742 15.5402 36.9543C15.6059 36.5344 15.7305 35.8369 15.8135 35.4064C15.8966 34.9758 16.0281 34.3282 16.1076 33.9652C16.2218 33.4492 16.2495 33.2571 16.2357 33.0756C16.2287 32.9297 16.1907 32.7731 16.1319 32.6486C16.0834 32.5418 15.9727 32.3782 15.8862 32.2856C15.7893 32.1824 15.6336 32.0686 15.4952 32.001C15.3568 31.9369 15.1803 31.8835 15.0696 31.8729C14.9658 31.8622 14.8032 31.8729 14.7063 31.8978C14.6059 31.9227 14.1942 32.1362 13.7201 32.4137C13.2933 32.6656 12.6892 33.0085 12.3467 33.2029L12.3015 33.2286C11.9693 33.4137 11.3084 33.7659 10.8309 34.0115C10.3569 34.2534 9.69942 34.5737 9.37763 34.7232C9.05583 34.8691 8.56449 35.079 8.28767 35.1858C8.01086 35.2961 7.5991 35.4384 7.37073 35.506C7.14236 35.5736 6.80672 35.6555 6.6268 35.6875C6.44687 35.7195 6.19082 35.7444 6.05587 35.7444C5.92092 35.7444 5.72715 35.7195 5.62335 35.6875C5.49878 35.6484 5.38806 35.5843 5.30847 35.4989C5.23235 35.4206 5.16315 35.3067 5.13893 35.2107C5.11125 35.1075 5.10432 34.9545 5.11817 34.7837C5.13201 34.6271 5.19083 34.3602 5.26349 34.1431C5.32924 33.9367 5.47802 33.5773 5.59221 33.3425C5.70639 33.1076 5.93822 32.6771 6.11123 32.3817C6.28424 32.0899 6.59566 31.5917 6.80673 31.2786C7.0178 30.9655 7.40879 30.4068 7.68215 30.0331C7.95204 29.6595 8.40186 29.0617 8.68559 28.6987C8.96587 28.3358 9.39493 27.802 9.63368 27.5067C9.87243 27.2149 10.2669 26.738 10.5091 26.4498C10.7513 26.158 10.9935 25.8378 11.0454 25.7381C11.1319 25.5673 11.1423 25.5139 11.1423 25.1901C11.1423 24.8485 11.1354 24.82 11.0212 24.5852C10.9036 24.3503 10.862 24.3076 9.91395 23.4892C9.37071 23.023 8.59217 22.3434 8.18387 21.9769C7.77557 21.6103 7.16658 21.0552 6.83441 20.7456C6.50223 20.4361 5.81712 19.7564 5.31193 19.2369C4.80329 18.7173 4.22198 18.0839 4.01783 17.8277C3.81368 17.5715 3.54379 17.2121 3.42615 17.0271C3.30504 16.8421 3.16317 16.593 3.11127 16.4755C3.05245 16.3403 3.01439 16.1766 3.00401 16.0307C2.99363 15.8421 3.00055 15.7781 3.05937 15.6856C3.10089 15.6215 3.19778 15.5361 3.27736 15.5005C3.36386 15.4578 3.54725 15.4187 3.70296 15.408C3.87597 15.3938 4.12164 15.4044 4.36039 15.4365C4.568 15.4685 4.92786 15.5325 5.15623 15.5859C5.3846 15.6393 5.85172 15.7674 6.19428 15.8706C6.53683 15.9738 7.13544 16.1766 7.52644 16.3154C7.91744 16.4577 8.57833 16.7104 8.99701 16.8741C9.41569 17.0413 10.1562 17.3438 10.6406 17.5502C11.125 17.7566 11.952 18.116 12.4745 18.3508C13.3153 18.7316 13.4537 18.7814 13.6682 18.7956C13.8343 18.8099 13.9727 18.7992 14.1007 18.76C14.2046 18.728 14.3776 18.6426 14.4814 18.5643C14.5852 18.4896 14.727 18.3401 14.7962 18.2334C14.8654 18.1266 14.9519 17.9452 14.9831 17.8277C15.0281 17.6712 15.0385 17.5502 15.0212 17.3829C15.0038 17.173 14.9243 16.9915 14.1042 15.2835C13.6094 14.2551 13.0246 13.0239 12.8032 12.5435C12.5783 12.0631 12.2219 11.2802 12.0073 10.7998C11.7928 10.3194 11.4814 9.60776 11.3153 9.21633C11.1492 8.82491 10.907 8.23065 10.779 7.89971C10.651 7.56878 10.4607 7.03857 10.3534 6.72543C10.2496 6.41229 10.1216 5.97105 10.0697 5.74686C10.0039 5.46931 9.97277 5.23445 9.96931 5.01739C9.96931 4.78609 9.98315 4.66866 10.0212 4.59037C10.0524 4.53344 10.1216 4.46227 10.1769 4.43736C10.2392 4.40534 10.3326 4.39466 10.433 4.4089C10.5195 4.41957 10.7063 4.49074 10.8482 4.56547C10.9901 4.63663 11.2565 4.80388 11.4364 4.93554C11.6164 5.06365 11.9381 5.31629 12.1458 5.49777C12.3534 5.6757 12.7374 6.01731 12.9935 6.25572C13.2495 6.49413 13.9693 7.20938 14.5886 7.84634C15.208 8.4833 16.0177 9.3302 16.3879 9.73231C16.7582 10.1344 17.4398 10.8852 17.9069 11.4048C18.374 11.9243 18.81 12.4011 18.8758 12.4687C18.9415 12.5328 19.0903 12.6324 19.2045 12.6894C19.3187 12.7427 19.4986 12.7997 19.6024 12.8103C19.7235 12.8246 19.8619 12.8103 19.9899 12.7748C20.1007 12.7463 20.2529 12.6894 20.329 12.6502C20.4052 12.6111 20.5366 12.5079 20.6232 12.4189C20.7097 12.33 20.8204 12.1663 20.8723 12.056C20.9242 11.9421 20.9726 11.7748 20.983 11.6788C21.0003 11.5329 20.9969 11.5115 20.9449 11.5115C20.9103 11.5115 20.8757 11.4866 20.8654 11.4581C20.855 11.4297 20.8792 11.3443 20.9207 11.2731C20.9865 11.145 20.9899 11.1059 20.9622 10.5579C20.9449 10.1558 20.9207 9.9636 20.8896 9.93514C20.8654 9.91023 20.8446 9.86753 20.8446 9.83906C20.8481 9.81059 20.8654 9.76789 20.8861 9.7501C20.9103 9.72519 20.9242 9.19854 20.9346 8.09543C20.9415 7.20582 20.9622 6.17388 20.983 5.80024C21.0072 5.42661 21.0453 4.8537 21.0764 4.51921C21.1041 4.18471 21.1595 3.69009 21.1975 3.41609C21.2356 3.14209 21.3048 2.72576 21.3498 2.4909C21.3948 2.25604 21.4744 1.92155 21.5228 1.74363C21.5747 1.56571 21.6612 1.30239 21.7131 1.15649C21.7685 1.01059 21.8723 0.789971 21.9449 0.665426C22.0176 0.54444 22.1352 0.380752 22.2044 0.302467C22.2771 0.224181 22.3878 0.131662 22.4467 0.099636Z" fill="currentColor"></path>
    </g>
  </symbol>
  <symbol fill="none" xmlns="http://www.w3.org/2000/svg" viewBox="0 0 48 48" id="sharp-outline">
    <g id="sharp-outline">
      <path id="Vector" d="M34.7967 3.69833C35.0847 3.37888 35.3612 3.09286 35.4111 3.05943C35.4648 3.026 35.5839 3 35.6953 3C35.8297 3 35.9257 3.02229 36.0178 3.08172C36.0869 3.12629 36.1791 3.21173 36.2175 3.27487C36.2559 3.33431 36.2905 3.44574 36.2905 3.51632C36.2905 3.58689 36.2521 3.76148 36.1983 3.90634C36.1484 4.04749 35.9449 4.58238 35.7413 5.09499C35.5416 5.60387 35.0808 6.75909 34.716 7.658C34.3512 8.55691 33.9826 9.48554 33.8904 9.71955C33.8077 9.92946 33.583 10.489 33.3685 11.023L33.2952 11.2054L33.2544 11.3069C33.0029 11.933 32.5008 13.1829 32.1086 14.177C31.69 15.2282 31.3175 16.1717 31.2791 16.2757C31.2215 16.428 31.2139 16.4874 31.2523 16.61C31.2753 16.6917 31.3521 16.8143 31.4212 16.8811C31.4904 16.948 31.5979 17.0111 31.6632 17.0223C31.7284 17.0334 32.3313 16.9666 33.0072 16.87C33.683 16.7771 35.1615 16.5654 36.2905 16.4057C37.4195 16.2422 38.6291 16.0677 38.9785 16.0157C39.328 15.9674 40.0883 15.8559 40.6682 15.7742C41.248 15.6925 42.3655 15.5328 43.145 15.4213C43.9246 15.3099 44.6619 15.2022 44.7771 15.1836C44.8923 15.165 45.3262 15.1019 45.7371 15.0462C46.4168 14.957 46.4974 14.9533 46.6203 15.0016C46.6933 15.0313 46.8046 15.1205 46.8699 15.2022C46.9352 15.2876 46.989 15.4065 46.9967 15.4956C47.0082 15.5848 46.989 15.6962 46.9544 15.7742C46.9045 15.8745 46.7854 15.9711 46.459 16.1791C46.221 16.3314 45.4913 16.7883 44.8347 17.1969C44.1819 17.6055 43.0836 18.2852 42.3962 18.7087C41.7088 19.1321 40.6144 19.8082 39.9578 20.2131C39.3049 20.6179 38.4486 21.1454 38.0569 21.3831C37.6652 21.6209 36.8972 22.0963 36.3481 22.4418C35.7989 22.7835 35.0079 23.2738 34.5855 23.5338C34.14 23.8087 33.7829 24.0539 33.7214 24.1282C33.6446 24.2284 33.6216 24.299 33.6216 24.4439C33.6216 24.5776 33.6446 24.6668 33.7061 24.7448C33.7637 24.8228 34.0555 24.9936 34.7045 25.3279C35.2076 25.5842 36.3442 26.1563 37.2313 26.5946C38.1184 27.0329 39.7427 27.8352 40.841 28.3776C41.9392 28.9162 43.099 29.4919 43.4138 29.6479L43.5212 29.7017C43.8372 29.8601 44.2678 30.076 44.539 30.2088C44.9422 30.4131 45.0996 30.5097 45.138 30.584C45.1688 30.6434 45.2033 30.7474 45.2187 30.818C45.2417 30.9183 45.2264 30.9889 45.1572 31.13C45.1073 31.2303 45.0152 31.3492 44.9499 31.39C44.8424 31.4643 44.7886 31.468 44.0283 31.4606C43.5866 31.4569 42.2042 31.4272 40.9562 31.3975C39.712 31.364 38.0876 31.3195 37.3465 31.3009C36.6092 31.2786 35.3458 31.2452 34.5432 31.2266C33.7406 31.208 32.7153 31.1894 31.4519 31.1894L31.3137 31.2897C31.2292 31.3566 31.1563 31.4569 31.1179 31.5609C31.0641 31.7095 31.0641 31.7429 31.114 31.8581C31.1447 31.9286 31.4366 32.3558 31.7592 32.8053C32.0817 33.2547 32.6001 33.9642 32.9035 34.3839C33.2107 34.8037 33.6178 35.3534 33.8098 35.6097C33.9979 35.866 34.3627 36.36 34.62 36.7055C34.8773 37.0509 35.3727 37.7307 35.7183 38.2099C36.0677 38.689 36.5247 39.3242 36.7321 39.6214C37.0393 40.0523 37.1161 40.186 37.1161 40.2937C37.1161 40.3717 37.0777 40.4832 37.0162 40.5723C36.9625 40.654 36.8473 40.7543 36.7474 40.8026C36.6207 40.8695 36.5478 40.8843 36.4441 40.862C36.3711 40.8509 36.1292 40.758 35.9065 40.6615C35.6837 40.5612 35.15 40.3197 34.716 40.1228C34.2821 39.926 33.4526 39.5434 32.8728 39.2797C32.2929 39.0122 31.4904 38.6445 31.0871 38.4625C30.6878 38.2767 29.8737 37.9053 29.2823 37.6341C28.6909 37.363 27.7232 36.9209 27.1318 36.6498C26.5405 36.3786 25.6956 35.996 25.2502 35.7954C24.8086 35.5986 24.2441 35.3497 24.0022 35.2457C23.7602 35.138 23.526 35.0525 23.4838 35.0525C23.4415 35.0525 23.357 35.0674 23.2917 35.0897C23.2188 35.112 23.1036 35.216 22.9807 35.3757C22.8732 35.5168 22.6236 35.8549 22.4239 36.1297C22.228 36.4046 21.2834 37.7678 20.3234 39.1571C19.3595 40.5463 18.0999 42.3664 17.5201 43.2059C16.9402 44.0417 16.4218 44.7771 16.3642 44.8328C16.3105 44.8886 16.1953 44.9554 16.1108 44.9777C15.9994 45.0074 15.9226 45.0074 15.8228 44.9777C15.7498 44.9554 15.6423 44.9034 15.5847 44.8626C15.5232 44.818 15.4426 44.7177 15.4004 44.636C15.3581 44.5543 15.3236 44.4651 15.3236 44.4391C15.3236 44.4168 15.4119 44.1085 15.5194 43.7631C15.6269 43.4176 15.9533 42.3701 16.2452 41.4415C16.537 40.5129 17.017 38.9639 17.3127 38.0056C17.6122 37.0472 17.9271 36.0183 18.0116 35.7211C18.1191 35.3534 18.1652 35.1454 18.1499 35.06C18.1383 34.9968 18.0807 34.8965 18.0231 34.8371C17.9617 34.7814 17.8311 34.7034 17.5316 34.5956L17.2628 34.7368L17.2438 34.747C17.0708 34.8394 16.5034 35.1427 15.9572 35.4426C15.3888 35.7546 14.6515 36.1557 14.3251 36.334C13.9987 36.5123 13.4726 36.8021 13.1539 36.9767C12.839 37.1512 11.9212 37.6527 11.1186 38.0984C10.3161 38.5405 9.2178 39.1422 8.68019 39.4319C8.14258 39.7254 7.63184 40.004 7.54736 40.0486C7.46288 40.0931 7.24015 40.2083 7.04815 40.3049C6.83694 40.4089 6.64878 40.4757 6.56814 40.4757C6.48749 40.4757 6.37613 40.4386 6.29165 40.3829C6.21101 40.3309 6.12269 40.2454 6.09197 40.186C6.06124 40.1303 6.02668 40.0263 6.01132 39.9557C5.9998 39.8851 6.00364 39.7848 6.02284 39.7328C6.04588 39.6808 6.42221 39.2759 6.85998 38.8339C7.3016 38.3919 8.65331 37.0547 9.86678 35.8623C11.0802 34.6699 12.5164 33.2621 13.0579 32.731C13.5993 32.1998 14.2406 31.5646 14.4826 31.3195C14.7437 31.0594 14.9434 30.8217 14.9741 30.7437C15.0087 30.6471 15.0087 30.5728 14.9818 30.454C14.9587 30.3685 14.8935 30.2497 14.8359 30.194C14.7744 30.1382 14.6669 30.0788 14.5939 30.0639C14.521 30.0528 14.1331 30.0231 13.7299 30.0008L13.7203 30.0003C13.3128 29.9814 12.2054 29.9299 11.2531 29.8894L7.75857 29.7408C6.79854 29.6999 5.74252 29.6516 5.41611 29.6331C4.98986 29.6145 4.78249 29.5885 4.68649 29.5439C4.61353 29.5068 4.51369 29.425 4.46761 29.3582C4.42152 29.295 4.3716 29.1799 4.36008 29.1093C4.34088 29.0165 4.35624 28.931 4.41384 28.801C4.48681 28.6413 4.51753 28.6153 4.81321 28.4816C4.98602 28.4036 5.81932 28.0804 6.66414 27.7609C7.50896 27.4415 9.0642 26.8546 10.1202 26.4609C11.1763 26.0634 12.1248 25.6994 12.2246 25.6511C12.3744 25.5805 12.432 25.5248 12.5088 25.3762C12.5817 25.2351 12.5971 25.1608 12.5779 25.0605C12.5625 24.9899 12.5164 24.8748 12.478 24.8079C12.4243 24.7188 12.3475 24.6705 12.1862 24.611C12.0633 24.5665 11.6793 24.4327 11.3299 24.3102C10.9804 24.1913 10.3084 23.9573 9.83222 23.7901C9.35605 23.6267 8.67251 23.3927 8.31538 23.2738C7.95825 23.1512 7.5512 23.0101 7.41296 22.9618C7.27471 22.9098 6.52206 22.6498 5.74252 22.3823C4.96298 22.1186 3.76103 21.7063 3.07365 21.4686C2.38627 21.2308 1.69506 20.9894 1.53761 20.93C1.38017 20.8705 1.21889 20.7962 1.17664 20.7591C1.13824 20.7257 1.08064 20.6402 1.05376 20.5734C1.02304 20.5102 1 20.4062 1 20.3431C1 20.2799 1.02688 20.1722 1.0576 20.1016C1.09216 20.0199 1.18432 19.927 1.48001 19.7413L15.8804 19.7933L16.0609 19.6336C16.2068 19.4999 16.2413 19.4404 16.2605 19.303C16.2721 19.2101 16.3412 17.4977 16.418 15.4956C16.4909 13.4935 16.5601 11.6028 16.5716 11.2982C16.5831 10.9899 16.6369 9.67869 16.6906 8.38233C16.7405 7.08596 16.802 5.81932 16.8212 5.56673C16.8481 5.23242 16.8788 5.08756 16.9326 5.00955C16.971 4.95383 17.0708 4.87583 17.1514 4.83868C17.2436 4.79411 17.3665 4.76811 17.474 4.77182C17.57 4.77554 17.6891 4.80897 17.739 4.8424C17.7889 4.87954 17.8619 4.95012 17.9041 5.00212C17.9425 5.05413 18.2881 5.96418 18.6683 7.02653C19.0484 8.08888 19.5669 9.53383 19.8203 10.2396C20.0737 10.9453 20.5 12.1228 20.765 12.8583C21.0299 13.5938 21.2834 14.2513 21.3295 14.3218C21.3717 14.3924 21.4447 14.4704 21.4869 14.5001C21.533 14.5261 21.6712 14.5484 21.8133 14.5484C22.0053 14.5521 22.086 14.5336 22.1704 14.4741C22.2396 14.4258 22.3125 14.3033 22.3855 14.1101C22.4469 13.9541 22.9807 12.4274 23.5721 10.7225C24.1634 9.01751 24.7049 7.46113 24.774 7.26798C24.8431 7.07482 24.9391 6.87795 24.9891 6.82966C25.039 6.78509 25.1504 6.72937 25.2425 6.70337C25.3692 6.66994 25.4422 6.66994 25.5766 6.70708C25.6726 6.73309 25.7801 6.78137 25.8185 6.81481C25.8569 6.84824 25.9107 6.93367 25.9414 6.99682C25.9721 7.06368 25.999 7.1974 25.999 7.29398C25.999 7.39427 25.8953 8.58291 25.7686 9.94243C25.6419 11.3019 25.5382 12.4794 25.5382 12.5612C25.542 12.6466 25.5766 12.7729 25.6265 12.8546C25.6726 12.9326 25.7532 13.018 25.807 13.044C25.8608 13.07 25.9645 13.1035 26.0374 13.1183C26.1104 13.1332 26.2256 13.1332 26.287 13.122C26.3753 13.1072 26.5405 12.9512 27.0397 12.4051C27.3619 12.0524 27.9583 11.387 28.4226 10.8691L28.5373 10.741C29.0096 10.2099 29.7508 9.3741 30.1847 8.88379C30.6186 8.39347 31.4942 7.40913 32.124 6.69594C32.7576 5.98275 33.5026 5.14327 33.7752 4.83497C34.0517 4.52667 34.5087 4.01406 34.7967 3.69833Z" stroke="currentColor" stroke-width="0.5"></path>
    </g>
  </symbol>
  <symbol fill="none" xmlns="http://www.w3.org/2000/svg" viewBox="0 0 48 48" id="sharp-solid">
    <g id="sharp-solid">
      <path id="Vector" d="M34.7967 3.69833C35.0847 3.37888 35.3612 3.09286 35.4111 3.05943C35.4648 3.026 35.5839 3 35.6953 3C35.8297 3 35.9257 3.02229 36.0178 3.08172C36.0869 3.12629 36.1791 3.21173 36.2175 3.27487C36.2559 3.33431 36.2905 3.44574 36.2905 3.51632C36.2905 3.58689 36.2521 3.76148 36.1983 3.90634C36.1484 4.04749 35.9449 4.58238 35.7413 5.09499C35.5416 5.60387 35.0808 6.75909 34.716 7.658C34.3512 8.55691 33.9826 9.48554 33.8904 9.71955C33.8077 9.92946 33.583 10.489 33.3685 11.023L33.2952 11.2054L33.2544 11.3069C33.0029 11.933 32.5008 13.1829 32.1086 14.177C31.69 15.2282 31.3175 16.1717 31.2791 16.2757C31.2215 16.428 31.2139 16.4874 31.2523 16.61C31.2753 16.6917 31.3521 16.8143 31.4212 16.8811C31.4904 16.948 31.5979 17.0111 31.6632 17.0223C31.7284 17.0334 32.3313 16.9666 33.0072 16.87C33.683 16.7771 35.1615 16.5654 36.2905 16.4057C37.4195 16.2422 38.6291 16.0677 38.9785 16.0157C39.328 15.9674 40.0883 15.8559 40.6682 15.7742C41.248 15.6925 42.3655 15.5328 43.145 15.4213C43.9246 15.3099 44.6619 15.2022 44.7771 15.1836C44.8923 15.165 45.3262 15.1019 45.7371 15.0462C46.4168 14.957 46.4974 14.9533 46.6203 15.0016C46.6933 15.0313 46.8046 15.1205 46.8699 15.2022C46.9352 15.2876 46.989 15.4065 46.9967 15.4956C47.0082 15.5848 46.989 15.6962 46.9544 15.7742C46.9045 15.8745 46.7854 15.9711 46.459 16.1791C46.221 16.3314 45.4913 16.7883 44.8347 17.1969C44.1819 17.6055 43.0836 18.2852 42.3962 18.7087C41.7088 19.1321 40.6144 19.8082 39.9578 20.2131C39.3049 20.6179 38.4486 21.1454 38.0569 21.3831C37.6652 21.6209 36.8972 22.0963 36.3481 22.4418C35.7989 22.7835 35.0079 23.2738 34.5855 23.5338C34.14 23.8087 33.7829 24.0539 33.7214 24.1282C33.6446 24.2284 33.6216 24.299 33.6216 24.4439C33.6216 24.5776 33.6446 24.6668 33.7061 24.7448C33.7637 24.8228 34.0555 24.9936 34.7045 25.3279C35.2076 25.5842 36.3442 26.1563 37.2313 26.5946C38.1184 27.0329 39.7427 27.8352 40.841 28.3776C41.9392 28.9162 43.099 29.4919 43.4138 29.6479L43.5212 29.7017C43.8372 29.8601 44.2678 30.076 44.539 30.2088C44.9422 30.4131 45.0996 30.5097 45.138 30.584C45.1688 30.6434 45.2033 30.7474 45.2187 30.818C45.2417 30.9183 45.2264 30.9889 45.1572 31.13C45.1073 31.2303 45.0152 31.3492 44.9499 31.39C44.8424 31.4643 44.7886 31.468 44.0283 31.4606C43.5866 31.4569 42.2042 31.4272 40.9562 31.3975C39.712 31.364 38.0876 31.3195 37.3465 31.3009C36.6092 31.2786 35.3458 31.2452 34.5432 31.2266C33.7406 31.208 32.7153 31.1894 31.4519 31.1894L31.3137 31.2897C31.2292 31.3566 31.1563 31.4569 31.1179 31.5609C31.0641 31.7095 31.0641 31.7429 31.114 31.8581C31.1447 31.9286 31.4366 32.3558 31.7592 32.8053C32.0817 33.2547 32.6001 33.9642 32.9035 34.3839C33.2107 34.8037 33.6178 35.3534 33.8098 35.6097C33.9979 35.866 34.3627 36.36 34.62 36.7055C34.8773 37.0509 35.3727 37.7307 35.7183 38.2099C36.0677 38.689 36.5247 39.3242 36.7321 39.6214C37.0393 40.0523 37.1161 40.186 37.1161 40.2937C37.1161 40.3717 37.0777 40.4832 37.0162 40.5723C36.9625 40.654 36.8473 40.7543 36.7474 40.8026C36.6207 40.8695 36.5478 40.8843 36.4441 40.862C36.3711 40.8509 36.1292 40.758 35.9065 40.6615C35.6837 40.5612 35.15 40.3197 34.716 40.1228C34.2821 39.926 33.4526 39.5434 32.8728 39.2797C32.2929 39.0122 31.4904 38.6445 31.0871 38.4625C30.6878 38.2767 29.8737 37.9053 29.2823 37.6341C28.6909 37.363 27.7232 36.9209 27.1318 36.6498C26.5405 36.3786 25.6956 35.996 25.2502 35.7954C24.8086 35.5986 24.2441 35.3497 24.0022 35.2457C23.7602 35.138 23.526 35.0525 23.4838 35.0525C23.4415 35.0525 23.357 35.0674 23.2917 35.0897C23.2188 35.112 23.1036 35.216 22.9807 35.3757C22.8732 35.5168 22.6236 35.8549 22.4239 36.1297C22.228 36.4046 21.2834 37.7678 20.3234 39.1571C19.3595 40.5463 18.0999 42.3664 17.5201 43.2059C16.9402 44.0417 16.4218 44.7771 16.3642 44.8328C16.3105 44.8886 16.1953 44.9554 16.1108 44.9777C15.9994 45.0074 15.9226 45.0074 15.8228 44.9777C15.7498 44.9554 15.6423 44.9034 15.5847 44.8626C15.5232 44.818 15.4426 44.7177 15.4004 44.636C15.3581 44.5543 15.3236 44.4651 15.3236 44.4391C15.3236 44.4168 15.4119 44.1085 15.5194 43.7631C15.6269 43.4176 15.9533 42.3701 16.2452 41.4415C16.537 40.5129 17.017 38.9639 17.3127 38.0056C17.6122 37.0472 17.9271 36.0183 18.0116 35.7211C18.1191 35.3534 18.1652 35.1454 18.1499 35.06C18.1383 34.9968 18.0807 34.8965 18.0231 34.8371C17.9617 34.7814 17.8311 34.7034 17.5316 34.5956L17.2628 34.7368L17.2438 34.747C17.0708 34.8394 16.5034 35.1427 15.9572 35.4426C15.3888 35.7546 14.6515 36.1557 14.3251 36.334C13.9987 36.5123 13.4726 36.8021 13.1539 36.9767C12.839 37.1512 11.9212 37.6527 11.1186 38.0984C10.3161 38.5405 9.2178 39.1422 8.68019 39.4319C8.14258 39.7254 7.63184 40.004 7.54736 40.0486C7.46288 40.0931 7.24015 40.2083 7.04815 40.3049C6.83694 40.4089 6.64878 40.4757 6.56814 40.4757C6.48749 40.4757 6.37613 40.4386 6.29165 40.3829C6.21101 40.3309 6.12269 40.2454 6.09197 40.186C6.06124 40.1303 6.02668 40.0263 6.01132 39.9557C5.9998 39.8851 6.00364 39.7848 6.02284 39.7328C6.04588 39.6808 6.42221 39.2759 6.85998 38.8339C7.3016 38.3919 8.65331 37.0547 9.86678 35.8623C11.0802 34.6699 12.5164 33.2621 13.0579 32.731C13.5993 32.1998 14.2406 31.5646 14.4826 31.3195C14.7437 31.0594 14.9434 30.8217 14.9741 30.7437C15.0087 30.6471 15.0087 30.5728 14.9818 30.454C14.9587 30.3685 14.8935 30.2497 14.8359 30.194C14.7744 30.1382 14.6669 30.0788 14.5939 30.0639C14.521 30.0528 14.1331 30.0231 13.7299 30.0008L13.7203 30.0003C13.3128 29.9814 12.2054 29.9299 11.2531 29.8894L7.75857 29.7408C6.79854 29.6999 5.74252 29.6516 5.41611 29.6331C4.98986 29.6145 4.78249 29.5885 4.68649 29.5439C4.61353 29.5068 4.51369 29.425 4.46761 29.3582C4.42152 29.295 4.3716 29.1799 4.36008 29.1093C4.34088 29.0165 4.35624 28.931 4.41384 28.801C4.48681 28.6413 4.51753 28.6153 4.81321 28.4816C4.98602 28.4036 5.81932 28.0804 6.66414 27.7609C7.50896 27.4415 9.0642 26.8546 10.1202 26.4609C11.1763 26.0634 12.1248 25.6994 12.2246 25.6511C12.3744 25.5805 12.432 25.5248 12.5088 25.3762C12.5817 25.2351 12.5971 25.1608 12.5779 25.0605C12.5625 24.9899 12.5164 24.8748 12.478 24.8079C12.4243 24.7188 12.3475 24.6705 12.1862 24.611C12.0633 24.5665 11.6793 24.4327 11.3299 24.3102C10.9804 24.1913 10.3084 23.9573 9.83222 23.7901C9.35605 23.6267 8.67251 23.3927 8.31538 23.2738C7.95825 23.1512 7.5512 23.0101 7.41296 22.9618C7.27471 22.9098 6.52206 22.6498 5.74252 22.3823C4.96298 22.1186 3.76103 21.7063 3.07365 21.4686C2.38627 21.2308 1.69506 20.9894 1.53761 20.93C1.38017 20.8705 1.21889 20.7962 1.17664 20.7591C1.13824 20.7257 1.08064 20.6402 1.05376 20.5734C1.02304 20.5102 1 20.4062 1 20.3431C1 20.2799 1.02688 20.1722 1.0576 20.1016C1.09216 20.0199 1.18432 19.927 1.48001 19.7413L15.8804 19.7933L16.0609 19.6336C16.2068 19.4999 16.2413 19.4404 16.2605 19.303C16.2721 19.2101 16.3412 17.4977 16.418 15.4956C16.4909 13.4935 16.5601 11.6028 16.5716 11.2982C16.5831 10.9899 16.6369 9.67869 16.6906 8.38233C16.7405 7.08596 16.802 5.81932 16.8212 5.56673C16.8481 5.23242 16.8788 5.08756 16.9326 5.00955C16.971 4.95383 17.0708 4.87583 17.1514 4.83868C17.2436 4.79411 17.3665 4.76811 17.474 4.77182C17.57 4.77554 17.6891 4.80897 17.739 4.8424C17.7889 4.87954 17.8619 4.95012 17.9041 5.00212C17.9425 5.05413 18.2881 5.96418 18.6683 7.02653C19.0484 8.08888 19.5669 9.53383 19.8203 10.2396C20.0737 10.9453 20.5 12.1228 20.765 12.8583C21.0299 13.5938 21.2834 14.2513 21.3295 14.3218C21.3717 14.3924 21.4447 14.4704 21.4869 14.5001C21.533 14.5261 21.6712 14.5484 21.8133 14.5484C22.0053 14.5521 22.086 14.5336 22.1704 14.4741C22.2396 14.4258 22.3125 14.3033 22.3855 14.1101C22.4469 13.9541 22.9807 12.4274 23.5721 10.7225C24.1634 9.01751 24.7049 7.46113 24.774 7.26798C24.8431 7.07482 24.9391 6.87795 24.9891 6.82966C25.039 6.78509 25.1504 6.72937 25.2425 6.70337C25.3692 6.66994 25.4422 6.66994 25.5766 6.70708C25.6726 6.73309 25.7801 6.78137 25.8185 6.81481C25.8569 6.84824 25.9107 6.93367 25.9414 6.99682C25.9721 7.06368 25.999 7.1974 25.999 7.29398C25.999 7.39427 25.8953 8.58291 25.7686 9.94243C25.6419 11.3019 25.5382 12.4794 25.5382 12.5612C25.542 12.6466 25.5766 12.7729 25.6265 12.8546C25.6726 12.9326 25.7532 13.018 25.807 13.044C25.8608 13.07 25.9645 13.1035 26.0374 13.1183C26.1104 13.1332 26.2256 13.1332 26.287 13.122C26.3753 13.1072 26.5405 12.9512 27.0397 12.4051C27.3619 12.0524 27.9583 11.387 28.4226 10.8691L28.5373 10.741C29.0096 10.2099 29.7508 9.3741 30.1847 8.88379C30.6186 8.39347 31.4942 7.40913 32.124 6.69594C32.7576 5.98275 33.5026 5.14327 33.7752 4.83497C34.0517 4.52667 34.5087 4.01406 34.7967 3.69833Z" fill="currentColor"></path>
    </g>
  </symbol>
  <symbol fill="none" xmlns="http://www.w3.org/2000/svg" viewBox="0 0 198 48" id="Logo Typo">
    <g id="typo">
      <path id="Vector" fill-rule="evenodd" clip-rule="evenodd" d="M135.56 9.79108V11.192H134.154H132.748V12.5928V13.9937H134.154H135.56V16.8622V19.7306H134.154H132.748V18.3298V16.9289H128.597H124.445V18.3298V19.7306H123.039H121.633V26.8018V33.8729H123.039H124.445V35.3404V36.808H125.851H127.257V38.2089V39.6098H130.003H132.748V38.2089V36.808H134.154H135.56V38.2089V39.6098H138.306H141.051V38.2089V36.808H142.457H143.864V35.4072V34.0063H142.457H141.051V21.1982V8.3902H138.306H135.56V9.79108ZM182.433 9.79108V11.192H181.027H179.62V12.5928V13.9937H181.027H182.433V16.8622V19.7306H181.027H179.62V18.3298V16.9289H175.486H171.352L171.269 17.4292C171.224 17.7044 171.186 18.3347 171.185 18.8301L171.183 19.7306H169.844H168.505V26.8018V33.8729H169.844H171.183V35.3404V36.808H172.59H173.996V38.2089V39.6098H176.808H179.62V38.2089V36.808H181.027H182.433V38.2089V39.6098H185.178H187.924V38.2089V36.808H189.33H190.736V35.4072V34.0063H189.33H187.924V21.1982V8.3902H185.178H182.433V9.79108ZM12.8888 18.3298V19.7306H11.4827H10.0765V21.1315V22.5324H8.67033H7.26416V23.9333V25.3342H8.67033H10.0765V29.6702V34.0063H11.4827H12.8888V35.4072V36.808H14.228H15.5673V38.2089V39.6098H18.3126H21.058V38.2089V36.808H23.8704H26.6827V38.2089V39.6098H29.4281H32.1735V38.2089V36.808H30.8342H29.495V35.4072V34.0063H28.0889H26.6827V28.2693V22.5324H25.2765H23.8704V23.9333V25.3342H22.5311H21.1919V29.6035V33.8729H19.7858H18.3796V32.472V31.0711H16.9734H15.5673V24V16.9289H14.228H12.8888V18.3298ZM35.1197 18.3298V19.7306H33.7135H32.3074V28.2693V36.808H33.7135H35.1197V35.4072V34.0063H36.4589H37.7981V25.4676V16.9289H36.4589H35.1197V18.3298ZM46.1012 18.3298V19.7306H44.6951H43.2889V21.1315V22.5324H41.9497H40.6105V29.6035V36.6746H41.9497H43.2889V38.1422V39.6098H50.2528H57.2167V38.2089V36.808H58.6228H60.029V35.4072V34.0063H58.6228H57.2167V35.4072V36.808H53.0651H48.9136V33.9396V31.0711H50.3197H51.7259V29.6702V28.2693H53.1321H54.5382V26.8685V25.4676H53.1321H51.7259V26.8685V28.2693H50.3197H48.9136V29.6702V31.0711H47.5074H46.1012V25.4009V19.7306H48.9136H51.7259V21.1315V22.5324H53.0651H54.4043V23.9333V25.3342H55.8105H57.2167V23.9333V22.5324H58.6228H60.029V21.1315V19.7306H58.6228H57.2167V18.3298V16.9289H51.659H46.1012V18.3298ZM82.2599 18.3298V19.7306H80.8537H79.4475V21.1315V22.5324H78.0414H76.6352V28.2693V34.0063H78.0414H79.4475V35.4072V36.808H80.8537H82.2599V38.2089V39.6098H87.8176H93.3753V38.2089V36.808H94.7815H96.1877V35.4072V34.0063H94.7815H93.3753V35.4072V36.808H90.6299H87.8846V35.4072V34.0063H86.4784H85.0722V32.5387V31.0711H83.6661H82.2599V25.4009V19.7306H85.0053H87.7506V21.1315V22.5324H89.1568H90.563V23.9333V25.3342H93.3753H96.1877V21.1315V16.9289H94.7815H93.3753V18.3298V19.7306H91.9692H90.563V18.3298V16.9289H86.4114H82.2599V18.3298ZM104.491 18.3298V19.7306H103.152H101.812V21.1315V22.5324H100.406H99V28.2026V33.8729H100.406H101.812V35.3404V36.808H103.152H104.491V38.2089V39.6098H108.642H112.794V38.2089V36.808H114.2H115.606V35.3404V33.8729H117.012H118.419V28.2026V22.5324H117.012H115.606V21.1315V19.7306H114.2H112.794V18.3298V16.9289H108.642H104.491V18.3298ZM151.765 18.3298V19.7306H150.359H148.953V21.1315V22.5324H147.613H146.274V29.6035V36.6746H147.613H148.953V38.1422V39.6098H155.916H162.88V38.2089V36.808H164.286H165.693V35.4072V34.0063H164.286H162.88V35.4072V36.808H158.729H154.577V33.9396V31.0711H155.983H157.39V29.6702V28.2693H158.796H160.202V26.8685V25.4676H158.796H157.39V26.8685V28.2693H155.983H154.577V29.6702V31.0711H153.171H151.765V25.4009V19.7306H154.577H157.39V21.1315V22.5324H158.729H160.068V23.9333V25.3342H161.474H162.88V23.9333V22.5324H164.286H165.693V21.1315V19.7306H164.286H162.88V18.3298V16.9289H157.323H151.765V18.3298ZM104.491 25.4009V31.0711H105.897H107.303V32.472V33.8729H108.642H109.982V35.3404V36.808H111.388H112.794V31.0711V25.3342H111.455H110.115V23.9333V22.5324H108.709H107.303V21.1315V19.7306H105.897H104.491V25.4009ZM127.257 25.4009V31.0711H128.663H130.07V32.472V33.8729H132.815H135.56V29.6035V25.3342H134.154H132.748V23.9333V22.5324H131.409H130.07V21.1315V19.7306H128.663H127.257V25.4009ZM173.996 25.4009V31.0711H175.402H176.808V32.472V33.8729H179.553H182.299V29.6035V25.3342H180.96H179.62V23.9333V22.5324H178.214H176.808V21.1315V19.7306H175.402H173.996V25.4009Z" fill="currentColor"></path>
    </g>
  </symbol>
</svg>